<?xml version="1.0" standalone="no"?>
<!DOCTYPE svg PUBLIC "-//W3C//DTD SVG 20010904//EN"
 "http://www.w3.org/TR/2001/REC-SVG-20010904/DTD/svg10.dtd">
<svg version="1.0" xmlns="http://www.w3.org/2000/svg"
 width="661.000000pt" height="211.000000pt" viewBox="0 0 661.000000 211.000000"
 preserveAspectRatio="xMidYMid meet">

<g transform="translate(0.000000,211.000000) scale(0.100000,-0.100000)"
fill="#000000" stroke="none">
<path d="M945 1568 c-177 -98 -419 -245 -430 -261 -12 -18 -15 -68 -15 -274 0
-162 4 -261 11 -276 16 -35 437 -277 483 -277 24 0 90 32 237 116 112 64 214
127 227 141 22 24 22 28 22 297 0 248 -2 274 -17 288 -10 8 -113 70 -229 136
-212 123 -244 135 -289 110z m119 -374 c22 -8 -91 -334 -116 -334 -9 0 -20 5
-23 10 -6 10 75 270 97 313 9 18 17 20 42 11z m-197 -83 c11 -17 8 -23 -24
-49 l-37 -29 37 -33 c36 -31 37 -34 21 -51 -16 -18 -17 -18 -43 0 -14 11 -44
35 -66 54 l-39 34 64 46 c35 26 67 47 70 47 3 0 11 -9 17 -19z m355 -34 l57
-40 -67 -53 c-63 -51 -67 -52 -85 -36 -18 16 -18 18 20 50 l38 34 -38 30 c-36
29 -37 32 -21 49 18 21 16 21 96 -34z"/>
</g>
</svg>
